{"title":"Lynyrd Skynyrd Lyve The Vicious Cycle Tour][2003][XVID][ICM369","uid":6113011,"size":1144905174,"categoryP":"video","categoryS":"music_videos","magnet":"?xt=urn:btih:2f79e0f0a0541a242455dba348361e0bcb534718&amp;dn=Lynyrd+Skynyrd+Lyve+The+Vicious+Cycle+Tour%5D%5B2003%5D%5BXVID%5D%5BICM369&amp;tr=udp%3A%2F%2Ftracker.openbittorrent.com%3A80&amp;tr=udp%3A%2F%2Fopen.demonii.com%3A1337&amp;tr=udp%3A%2F%2Ftracker.coppersurfer.tk%3A6969&amp;tr=udp%3A%2F%2Fexodus.desync.com%3A6969","seeders":1,"leechers":0,"uploader":"ICM369","files":-1,"time":1295432094,"description":"Lynyrd Skynyrd Lyve The Vicious Cycle Tour][2003][XVID][ICM369\n______________________________________________________________\n\n &lt;a href=&quot;\nhttp://www.imdb.com/title/tt0427479/&quot; rel=&quot;nofollow&quot; target=&quot;_NEW&quot;&gt;\nhttp://www.imdb.com/title/tt0427479/&lt;/a&gt;\n\n\nDVD Release Date: November 18, 2003 \n\nThe concert was recorded on July 11, 2003, at the AmSouth Amphitheatre \nin Nashville, Tennessee, during their Vicious Cycle Tour. \n\nThis is modern Lynyrd Skynrd performing at their very best. \n\nThis line-up contains some excellent seasoned rock veterans performing \nat their very best. \n\nJohnny Van Zant is on lead vocals, Gary Rossington (a founding member of \nSkynyrd) is on lead and slide guitar, Billy Powell (founding member is on \nkeyboards), Rickey Medlocke, (formerly of Blackfoot) is on lead guitar, the \nlate Hughie Thomasson (formerly of the Outlaws) \nis on lead guitar, Michael Cartellone (formerly of Ted Nugent and the Damm \nYankees) is on Drums, the Mississippi KId Ean Evans is on bass. \n\nAlso, you get Carol Chase and Dale Krantz Rossington as background singers, \nthe dvd also contains other backup musicians.\n \nThey play all the classic from the old Skynyrd and include some new songs. \n\nEvery song performanace is excellent. Some highlights include an awesome \nversion of &quot;Traveling Man&quot;.\n \nThis performance has excellent slide guitar play by Gary Rossington and \ncontains Ronnie Van Zant \nsinging along on the big screen with Johnny Van Zant.\n\nIt's like a part of the past and part of the present together.\n \nAnother highlight includes the performance of &quot;Freebird&quot; which features the \nexcellent &quot;three guitar&quot; performances by Rossington, Medlocke, and Thomasson, \nalong with the &quot;three guitar&quot; performances of Allen Collins, Gary Rossington, \nand Steve Gaines on the Big Screen. \n\nThe current guitar players pay tribute to three guitar players from the past.\n(Note: Gary Rossington was one of the guitar players of the past and one of the \ncurrent ones also.) \n\nBilly Powell performs like a seasoned professional on the piano. All, the members \nplay like seasoned professionals. \n \nIt was recorded and filmed at The Amsouth Amphitheatre in Nashville,TN on July 11, \n2003 before a packed crowd, i recommend it to rock fans, especially the Skynyrd \nfaithful.\n\nThe set list for this concert was hit after hit.\n\n\nSet list\n________\n \n 1. That's How I Like It\n \n 2. What's Your Name\n \n 3. I Know A Little\n \n 4. Pick 'Em Up\n \n 5. Simple Man\n \n 6. That Smell\n \n 7. Red White and Blue\n \n 8. Down South Jukin\n \n 9. Gimme Back My Bullets\n \n10. Double Trouble\n \n11. The Ballad of Curtis \n\n12. Tuesday's Gone\n \n13. Mississippi Kid\n \n14. Workin'\n \n15. Gimme Three Steps\n \n16. Call Me The Breeze\n \n17. Sweet Home Alabama\n \n18. Travelin' Man\n \n19. The Way\n \n20. Free Bird\n__________\n\nFormat                           : AVI\nFormat/Info                      : Audio Video Interleave\nFile size                        : 1.07 GiB\nDuration                         : 1h 54mn\nOverall bit rate                 : 1 339 Kbps\n\nVideo\nID                               : 0\nFormat                           : MPEG-4 Visual\nFormat profile                   : Simple@L3\nFormat settings, BVOP            : No\nFormat settings, QPel            : No\nFormat settings, GMC             : No warppoints\nFormat settings, Matrix          : Default (H.263)\nCodec ID                         : XVID\nCodec ID/Hint                    : XviD\nDuration                         : 1h 54mn\nBit rate                         : 1 198 Kbps\nWidth                            : 640 pixels\nHeight                           : 480 pixels\nDisplay aspect ratio             : 4:3\nFrame rate                       : 29.970 fps\nColor space                      : YUV\nChroma subsampling               : 4:2:0\nBit depth                        : 8 bits\nScan type                        : Progressive\nBits/(Pixel*Frame)               : 0.130\nStream size                      : 977 MiB (89%)\nWriting library                  : Magic0432\n\nAudio\nID                               : 1\nFormat                           : MPEG Audio\nFormat version                   : Version 1\nFormat profile                   : Layer 3\nMode                             : Joint stereo\nMode extension                   : MS Stereo\nCodec ID                         : 55\nCodec ID/Hint                    : MP3\nDuration                         : 1h 54mn\nBit rate mode                    : Constant\nBit rate                         : 128 Kbps\nChannel(s)                       : 2 channels\nSampling rate                    : 44.1 KHz\nStream size                      : 104 MiB (10%)\nAlignment                        : Aligned on interleaves\nInterleave, duration             : 26 ms (0.78 video frame)\nWriting library                  : LAME3.97\n__________\n\nEnjoy:D","torrent":{"xt":"urn:btih:2f79e0f0a0541a242455dba348361e0bcb534718","amp;dn":"Lynyrd+Skynyrd+Lyve+The+Vicious+Cycle+Tour%5D%5B2003%5D%5BXVID%5D%5BICM369","amp;tr":["udp%3A%2F%2Ftracker.openbittorrent.com%3A80","udp%3A%2F%2Fopen.demonii.com%3A1337","udp%3A%2F%2Ftracker.coppersurfer.tk%3A6969","udp%3A%2F%2Fexodus.desync.com%3A6969"],"infoHash":"2f79e0f0a0541a242455dba348361e0bcb534718","infoHashBuffer":{"type":"Buffer","data":[47,121,224,240,160,84,26,36,36,85,219,163,72,54,30,11,203,83,71,24]},"announce":[],"urlList":[]}}